<svg width="17" height="17" viewBox="0 0 17 17" fill="none" xmlns="http://www.w3.org/2000/svg">
<path opacity="0.2" d="M14.7148 4.36048C14.6946 2.93009 13.7063 2.03803 12.6632 2.22736C11.1563 2.5009 9.65876 3.03811 8.51175 3.56636C7.80099 3.89379 7.34332 4.68201 7.33925 5.62999L7.31082 12.3382C7.52036 13.6238 6.62037 15.1744 5.05244 16.0564C3.22048 17.0865 1.17136 16.8138 0.475323 15.4472C-0.220988 14.0805 0.699454 12.1375 2.53151 11.1071C3.55676 10.5305 4.64992 10.362 5.53587 10.565L5.55662 5.66543C5.56332 4.13489 6.32185 2.57457 7.81916 1.8848C9.06887 1.30923 10.7105 0.717483 12.3954 0.411445C14.8188 -0.0286317 16.4662 2.09599 16.4972 4.28994L16.5741 9.75267C16.7119 11.0138 15.8197 12.4975 14.2997 13.3522C12.4677 14.3823 10.4186 14.1096 9.72256 12.743C9.02624 11.3763 9.94669 9.43333 11.7787 8.4029C12.7967 7.83034 13.8816 7.66014 14.7642 7.8564L14.7148 4.36048Z" fill="white"/>
</svg>
