<svg width="13" height="16" viewBox="0 0 13 16" fill="none" xmlns="http://www.w3.org/2000/svg">
<path opacity="0.6" d="M9.60655 3.26751C9.22838 2.16619 8.20616 1.71624 7.41344 2.1159C6.26817 2.69329 5.19713 3.47235 4.40636 4.15936C3.91637 4.58514 3.74693 5.30584 3.98351 6.03997L5.65782 11.2348C6.15196 12.1782 5.81895 13.5959 4.77843 14.6586C3.56261 15.9001 1.84215 16.1867 0.93541 15.2988C0.0284278 14.4108 0.278672 12.6847 1.49449 11.4431C2.17491 10.7482 3.01329 10.3525 3.77867 10.2944L2.55577 6.50018C2.17394 5.31488 2.39049 3.92401 3.42271 3.02703C4.28429 2.2785 5.45763 1.4223 6.73814 0.776546C8.57994 -0.152165 10.4452 1.091 11.0253 2.78021L12.4693 6.98626C12.8995 7.92816 12.5558 9.29217 11.547 10.3222C10.3312 11.5637 8.6107 11.8503 7.70396 10.9623C6.79698 10.0744 7.04723 8.34832 8.26305 7.10662C8.93858 6.41668 9.76988 6.02166 10.5309 5.95916L9.60655 3.26751Z" fill="white"/>
</svg>
