<svg width="6" height="10" viewBox="0 0 6 10" fill="none" xmlns="http://www.w3.org/2000/svg">
<path opacity="0.3" d="M1.80339 0.960062C1.98719 0.747419 2.29439 0.699616 2.51856 0.715774C2.53527 0.716979 2.5501 0.720903 2.56427 0.726671C2.73774 0.797269 3.14678 0.878647 3.62122 0.918345C4.09457 0.957951 4.62446 0.955313 5.0388 0.862366C5.12696 0.842588 5.22445 0.903994 5.22039 1.0059C5.20774 1.3237 5.06919 1.7375 4.68287 2.05282C4.3072 2.35946 3.70337 2.56803 2.76837 2.51219L4.09172 6.25888C4.28548 6.50763 4.41501 6.80403 4.45619 7.13114C4.58852 8.18221 3.7585 9.15226 2.6023 9.29782C1.4461 9.44338 0.401552 8.70932 0.269231 7.65825C0.136909 6.60718 0.966925 5.63713 2.12312 5.49157C2.44699 5.4508 2.7621 5.47905 3.05086 5.56395L1.83991 2.13547L1.83447 2.12336C1.57425 1.54365 1.6158 1.17709 1.80339 0.960062Z" fill="white"/>
</svg>
